<svg width="20" height="20" viewBox="0 0 20 20" fill="none" xmlns="http://www.w3.org/2000/svg">
<path fill-rule="evenodd" clip-rule="evenodd" d="M1.62973 5.88227C3.10949 2.31774 6.59119 -0.0040403 10.4507 5.27842e-06C12.9799 3.88598e-06 15.4054 1.00543 17.1929 2.79481C18.9804 4.5842 19.9833 7.01076 19.9807 9.54001C19.9807 13.3995 17.6552 16.8787 14.0892 18.3548C10.5231 19.8308 6.41897 19.0128 3.69133 16.2823C0.963701 13.5518 0.149969 9.4468 1.62973 5.88227ZM17.9307 12.44C18.2798 11.5133 18.4561 10.5303 18.4507 9.54C18.4731 7.7187 17.8734 5.94425 16.7507 4.51001C16.3007 5.26001 15.4507 6.38001 14.4007 6.38001C13.9967 6.34753 13.5902 6.38818 13.2007 6.50001V6.61001C13.2007 6.79001 13.6907 7.28001 13.9507 7.54001C14.5982 8.02285 15.0293 8.74143 15.1507 9.54C15.1507 11.14 15.3107 11.63 15.4507 11.75C16.3152 11.8118 17.1585 12.0465 17.9307 12.44ZM2.45067 9.54C2.44157 7.76105 3.02569 6.02982 4.11067 4.62001C4.39402 5.13679 4.94144 5.45291 5.53067 5.44001C6.33981 5.84799 7.05502 6.42016 7.63067 7.12001C7.20712 7.38043 6.8232 7.70037 6.49067 8.07C6.4598 8.09973 6.42619 8.13245 6.39058 8.16713C6.11471 8.43576 5.71894 8.82115 5.55067 8.83C5.08769 8.81601 4.63948 8.99378 4.31196 9.3213C3.98444 9.64882 3.80667 10.097 3.82067 10.56C3.8221 10.6746 3.84945 10.7874 3.90067 10.89L4.80067 12.69C4.81215 13.7253 4.97728 14.7532 5.29067 15.74C3.46644 14.2005 2.42496 11.9269 2.45067 9.54ZM7.72067 17.06C8.59581 17.3776 9.51967 17.5401 10.4507 17.54V17.57C13.2029 17.5885 15.7714 16.1909 17.2507 13.87C16.6475 13.5779 16.0035 13.379 15.3407 13.28C13.6107 13.28 13.6107 10.8 13.6107 9.6C13.6107 9.41877 13.1649 8.9737 12.8894 8.69869C12.8761 8.68538 12.8631 8.67247 12.8507 8.66C12.2077 8.17462 11.7805 7.45664 11.6607 6.66001C11.6607 4.93001 13.4207 4.93001 14.3607 4.93001C14.6207 4.92001 15.2407 4.18001 15.6207 3.44001C12.6554 0.929869 8.31536 0.912998 5.33067 3.40001C5.3458 3.48601 5.3458 3.574 5.33067 3.66001C5.34067 3.90001 5.45067 3.90001 5.56067 3.90001C6.76067 3.90001 9.45067 6.34001 9.49067 7.48001C9.49226 7.73708 9.38384 7.98257 9.19275 8.15454C9.00167 8.32652 8.74616 8.40857 8.49067 8.38C8.31067 8.39001 7.82067 8.88 7.56067 9.14001C7.0742 9.78352 6.3574 10.2136 5.56067 10.34C5.48067 10.34 5.36067 10.34 5.36067 10.44L6.23067 12.11C6.28188 12.2126 6.30923 12.3254 6.31067 12.44C6.31067 13.53 6.55067 15.3 7.07067 15.83C7.43348 16.1443 7.66538 16.5832 7.72067 17.06Z" fill="#E4E4E4"/>
</svg>
