<svg width="13" height="13" viewBox="0 0 13 13" fill="none" xmlns="http://www.w3.org/2000/svg">
<path fill-rule="evenodd" clip-rule="evenodd" d="M7.31453 0.598424L11.1545 2.72962C11.7648 3.0696 12.1423 3.71423 12.1401 4.41282V8.54722C12.1423 9.24582 11.7648 9.89045 11.1545 10.2304L7.31453 12.3616C6.73362 12.6852 6.02663 12.6852 5.44573 12.3616L1.60573 10.2304C0.995441 9.89045 0.617977 9.24582 0.620126 8.54722V4.41282C0.617977 3.71423 0.995441 3.0696 1.60573 2.72962L5.44573 0.598424C6.02663 0.274809 6.73362 0.274809 7.31453 0.598424ZM7.16733 6.39682L9.87453 4.89282H9.84893C10.0546 4.74773 10.1133 4.4684 9.98333 4.25282C9.85466 4.02924 9.57382 3.94498 9.34333 4.06082L6.64253 5.56482C6.46138 5.65611 6.24768 5.65611 6.06653 5.56482L3.36573 4.06082C3.13523 3.94498 2.85439 4.02924 2.72573 4.25282C2.60531 4.48135 2.68733 4.76418 2.91133 4.89282L5.64413 6.39682C5.74686 6.45514 5.85652 6.50029 5.97053 6.53122V9.36003C5.99758 9.58516 6.18858 9.75457 6.41533 9.75457C6.64208 9.75457 6.83307 9.58516 6.86013 9.36003V6.52482C6.96678 6.49318 7.06976 6.45027 7.16733 6.39682Z" fill="#115e59"  />
</svg>
