<svg width="36" height="36" viewBox="0 0 36 36" fill="none" xmlns="http://www.w3.org/2000/svg">
<path d="M13.64 19.04L16.88 22.28L22.28 14.72M30.92 17.96C30.92 19.6619 30.5848 21.3472 29.9335 22.9196C29.2822 24.492 28.3276 25.9207 27.1241 27.1241C25.9207 28.3276 24.492 29.2822 22.9196 29.9335C21.3472 30.5848 19.6619 30.92 17.96 30.92C16.2581 30.92 14.5728 30.5848 13.0004 29.9335C11.428 29.2822 9.99934 28.3276 8.7959 27.1241C7.59245 25.9207 6.63782 24.492 5.98652 22.9196C5.33522 21.3472 5 19.6619 5 17.96C5 14.5228 6.36542 11.2264 8.7959 8.7959C11.2264 6.36542 14.5228 5 17.96 5C21.3972 5 24.6936 6.36542 27.1241 8.7959C29.5546 11.2264 30.92 14.5228 30.92 17.96Z" stroke="#E2E8F0" stroke-width="2.16" stroke-linecap="round" stroke-linejoin="round"/>
</svg>
