<svg width="22" height="21" viewBox="0 0 22 21" fill="none" xmlns="http://www.w3.org/2000/svg">
<path d="M0.900391 9.33333C0.900391 6.432 2.54039 4.40533 5.09039 4.064C5.35039 4.02133 5.62039 4 5.90039 4H15.9004C16.1604 4 16.4104 4.01065 16.6504 4.05332C19.2304 4.37332 20.9004 6.41067 20.9004 9.33333V14.6667C20.9004 17.8667 18.9004 20 15.9004 20H10.9004H8.40039" stroke="#E4E4E4" stroke-width="1.5" stroke-linecap="round" stroke-linejoin="round"/>
<path d="M3.40039 12.5L3.40039 19M3.40039 12.5L5.90039 15M3.40039 12.5L0.900391 15" stroke="#E4E4E4" stroke-width="1.5" stroke-linecap="round" stroke-linejoin="round"/>
<path d="M2.25697 5.48012C2.06004 3.70265 3.25656 2.11146 4.92948 1.92612L14.774 0.835412C16.4469 0.650065 17.9627 1.94074 18.1597 3.71821L18.2488 4.52281" stroke="#E4E4E4" stroke-width="1.5"/>
<path d="M16.9004 10H20.0432C20.5166 10 20.9004 10.3838 20.9004 10.8571V13.1429C20.9004 13.6162 20.5166 14 20.0432 14H16.9004C15.7958 14 14.9004 13.1046 14.9004 12C14.9004 10.8954 15.7958 10 16.9004 10Z" stroke="#E4E4E4" stroke-width="1.5" stroke-linecap="round"/>
</svg>
