<svg width="57" height="57" viewBox="0 0 57 57" fill="none" xmlns="http://www.w3.org/2000/svg">
<path d="M25.9329 2.96084C25.502 1.69109 24.1379 0.966861 22.914 1.51458C21.2298 2.26831 19.6924 3.28543 18.3726 4.52604C16.4852 6.30015 15.101 8.47654 14.3425 10.8624C13.584 13.2483 13.4746 15.77 14.0241 18.2043C14.5736 20.6385 15.7649 22.91 17.4926 24.8177C19.2203 26.7254 21.431 28.2104 23.929 29.141C26.4269 30.0717 29.1349 30.4193 31.8131 30.1531C34.4913 29.8869 37.0571 29.0152 39.2832 27.615C40.6818 26.7353 41.9192 25.6641 42.9555 24.4428C43.9469 23.2743 43.4058 21.5618 42.0257 20.8957V20.8957C40.7682 20.2887 39.2764 20.7922 38.3144 21.8044C37.7063 22.4444 37.0109 23.0135 36.243 23.4965C34.7506 24.4351 33.0306 25.0195 31.2352 25.1979C29.4397 25.3764 27.6243 25.1433 25.9498 24.5194C24.2752 23.8955 22.7932 22.9001 21.635 21.6212C20.4767 20.3423 19.6781 18.8195 19.3097 17.1876C18.9413 15.5558 19.0147 13.8653 19.5232 12.2658C20.0316 10.6663 20.9596 9.20733 22.2249 8.018C22.8657 7.4156 23.5831 6.89181 24.359 6.45679C25.6066 5.75722 26.3926 4.31536 25.9329 2.96084V2.96084Z" fill="#00CBA9"/>
<path d="M26.3486 28.2968C25.0096 28.0033 23.6221 28.759 23.4674 30.121C23.2551 31.9895 23.5404 33.8819 24.3181 35.672C25.4234 38.216 27.4713 40.4338 30.1922 42.0333C32.913 43.6328 36.179 44.5388 39.5598 44.632C42.9406 44.7252 46.2776 44.0012 49.131 42.5554C51.9845 41.1096 54.2204 39.0098 55.5443 36.5327C56.8682 34.0557 57.2178 31.3176 56.5472 28.6793C55.8765 26.041 54.217 23.6263 51.7874 21.7533C49.8543 20.2632 47.5059 19.1716 44.9469 18.5611C43.8246 18.2933 42.751 19.0592 42.5106 20.1877V20.1877C42.243 21.4441 43.1112 22.6456 44.3343 23.0378C45.6724 23.4669 46.9011 24.0996 47.948 24.9067C49.5768 26.1623 50.6893 27.7811 51.1389 29.5497C51.5885 31.3184 51.3541 33.154 50.4666 34.8145C49.5791 36.4751 48.0801 37.8827 46.1672 38.852C44.2544 39.8213 42.0173 40.3066 39.7509 40.2441C37.4844 40.1817 35.2949 39.5743 33.471 38.502C31.647 37.4297 30.274 35.9429 29.5331 34.2375C29.2096 33.4928 29.0132 32.7218 28.9447 31.9445C28.8026 30.3316 27.9302 28.6436 26.3486 28.2968V28.2968Z" fill="#00CBA9"/>
<path d="M4.01174 30.1309C2.57251 29.4764 1.97686 27.7123 3.04644 26.548C3.87425 25.6468 4.84739 24.8595 5.9372 24.2154C7.90098 23.0548 10.1705 22.4024 12.5057 22.3274C14.8408 22.2523 17.1546 22.7573 19.2023 23.789C21.2499 24.8206 22.9552 26.3405 24.1377 28.1878C25.3202 30.0351 25.9359 32.1411 25.9196 34.2829C25.9033 36.4247 25.2557 38.5226 24.0452 40.3546C22.8347 42.1867 21.1064 43.6846 19.0433 44.69C17.7406 45.3248 16.3351 45.7482 14.8885 45.9478C13.4861 46.1412 12.3867 44.9134 12.4623 43.4998V43.4998C12.5371 42.1032 13.7493 41.0691 15.0974 40.6964C15.5581 40.569 16.006 40.4002 16.4345 40.1915C17.6128 39.6172 18.6 38.7617 19.2913 37.7153C19.9827 36.6689 20.3526 35.4707 20.3619 34.2474C20.3712 33.0241 20.0196 31.8212 19.3442 30.7661C18.6688 29.711 17.6948 28.8429 16.5253 28.2537C15.3557 27.6644 14.0342 27.376 12.7005 27.4189C11.3667 27.4618 10.0705 27.8344 8.94884 28.4973C8.58484 28.7124 8.24363 28.9555 7.92847 29.2232C6.836 30.1513 5.3166 30.7242 4.01174 30.1309V30.1309Z" fill="#00CBA9"/>
<path d="M4.01174 30.1309C2.57251 29.4764 1.97686 27.7123 3.04644 26.548C3.87425 25.6468 4.84739 24.8595 5.9372 24.2154C7.90098 23.0548 10.1705 22.4024 12.5057 22.3274C14.8408 22.2523 17.1546 22.7573 19.2023 23.789C21.2499 24.8206 22.9552 26.3405 24.1377 28.1878C25.3202 30.0351 25.9359 32.1411 25.9196 34.2829C25.9033 36.4247 25.2557 38.5226 24.0452 40.3546C22.8347 42.1867 21.1064 43.6846 19.0433 44.69C17.7406 45.3248 16.3351 45.7482 14.8885 45.9478C13.4861 46.1412 12.3867 44.9134 12.4623 43.4998V43.4998C12.5371 42.1032 13.7493 41.0691 15.0974 40.6964C15.5581 40.569 16.006 40.4002 16.4345 40.1915C17.6128 39.6172 18.6 38.7617 19.2913 37.7153C19.9827 36.6689 20.3526 35.4707 20.3619 34.2474C20.3712 33.0241 20.0196 31.8212 19.3442 30.7661C18.6688 29.711 17.6948 28.8429 16.5253 28.2537C15.3557 27.6644 14.0342 27.376 12.7005 27.4189C11.3667 27.4618 10.0705 27.8344 8.94884 28.4973C8.58484 28.7124 8.24363 28.9555 7.92847 29.2232C6.836 30.1513 5.3166 30.7242 4.01174 30.1309V30.1309Z" fill="#00CBA9"/>
<g filter="url(#filter0_biiii_395_2166)">
<path fill-rule="evenodd" clip-rule="evenodd" d="M17.1817 19.7666C15.8481 20.2478 14.3421 19.6045 14.0282 18.2219C13.4933 15.8665 13.5726 13.4146 14.2775 11.0726C15.2264 7.91991 17.2576 5.13645 20.0662 3.14013C22.8748 1.14381 26.3092 0.0423696 29.8537 0.00119769C33.3981 -0.0399742 36.8615 0.98134 39.7236 2.91179C42.5857 4.84224 44.6921 7.57765 45.7267 10.7073C46.7612 13.8369 46.668 17.1919 45.4609 20.2684C44.2539 23.345 41.9983 25.9771 39.0327 27.7696C36.7732 29.1352 34.1946 29.9573 31.5301 30.179C30.1483 30.2939 29.0923 29.0802 29.1882 27.6969C29.2827 26.3335 30.4676 25.3278 31.8193 25.1252C33.3291 24.899 34.7803 24.3826 36.0751 23.6C38.0631 22.3984 39.5753 20.6339 40.3844 18.5714C41.1936 16.509 41.2561 14.2598 40.5626 12.1618C39.8691 10.0637 38.4569 8.22997 36.5382 6.93583C34.6195 5.64169 32.2978 4.95702 29.9216 4.98462C27.5454 5.01222 25.2431 5.7506 23.3603 7.0889C21.4775 8.4272 20.1158 10.2932 19.4796 12.4067C19.1167 13.6125 19.0011 14.8618 19.1295 16.0918C19.2884 17.6145 18.6218 19.247 17.1817 19.7666ZM17.6843 26.1419C18.4464 24.842 17.9427 23.1454 16.4841 22.7676C15.1339 22.4179 13.7246 22.2699 12.3108 22.3349C9.95244 22.4433 7.67117 23.1404 5.71344 24.3507C3.75571 25.561 2.19592 27.2386 1.20255 29.2024C0.209184 31.1661 -0.180014 33.3413 0.0769986 35.493C0.334011 37.6448 1.22746 39.6912 2.66086 41.4114C4.09425 43.1316 6.0131 44.46 8.21016 45.2534C10.4072 46.0467 12.799 46.2747 15.1271 45.9127C16.4797 45.7025 17.7809 45.2977 18.9847 44.7183C20.3784 44.0475 20.5097 42.2312 19.4503 41.1043C18.5123 40.1064 16.9711 40.0423 15.6837 40.5093C15.2063 40.6825 14.7084 40.8104 14.1978 40.8898C12.868 41.0965 11.502 40.9663 10.2471 40.5132C8.99223 40.0601 7.89626 39.3013 7.07757 38.3188C6.25888 37.3363 5.74858 36.1675 5.60178 34.9385C5.45499 33.7095 5.67728 32.4672 6.24465 31.3456C6.81202 30.224 7.70291 29.2658 8.82108 28.5745C9.93925 27.8832 11.2422 27.4851 12.5892 27.4232C13.1204 27.3987 13.6505 27.427 14.1705 27.506C15.5149 27.7103 16.9966 27.3149 17.6843 26.1419ZM29.0874 37.3506C28.6227 37.6042 28.2743 37.9781 28.0615 38.4006C27.8472 38.7787 27.7253 39.216 27.7266 39.6817L27.765 53.9461C27.7688 55.3753 28.9305 56.5307 30.3597 56.5269C31.7889 56.523 32.9443 55.3614 32.9405 53.9322L32.9119 43.3346C34.7826 44.0471 36.8068 44.478 38.8822 44.6024C41.3813 44.7522 43.8908 44.4536 46.2255 43.7286C48.5602 43.0036 50.6605 41.8707 52.3715 40.4136C54.0824 38.9564 55.3604 37.2122 56.111 35.3096C56.8616 33.4069 57.0658 31.3945 56.7084 29.4207C56.3511 27.4469 55.4413 25.5622 54.0462 23.9055C53.0246 22.6923 51.7618 21.6241 50.3114 20.7411C49.3732 20.17 48.1776 20.4834 47.5233 21.3655C46.6549 22.5363 47.1006 24.1984 48.2241 25.127C48.6798 25.5037 49.0944 25.9125 49.4623 26.3495C50.3976 27.4601 51.0075 28.7236 51.247 30.0468C51.4866 31.37 51.3497 32.7191 50.8465 33.9945C50.3433 35.27 49.4866 36.4393 48.3396 37.4162C47.1926 38.393 45.7846 39.1525 44.2194 39.6385C42.6543 40.1245 40.972 40.3247 39.2967 40.2243C37.6213 40.1239 35.9957 39.7255 34.5397 39.0584C33.753 38.6979 33.0266 38.264 32.3752 37.7674C31.4256 37.0433 30.1357 36.7786 29.0874 37.3506Z" fill="url(#paint0_linear_395_2166)"/>
</g>
<defs>
<filter id="filter0_biiii_395_2166" x="-12.6" y="-12.6" width="82.0799" height="81.7269" filterUnits="userSpaceOnUse" color-interpolation-filters="sRGB">
<feFlood flood-opacity="0" result="BackgroundImageFix"/>
<feGaussianBlur in="BackgroundImageFix" stdDeviation="6.3"/>
<feComposite in2="SourceAlpha" operator="in" result="effect1_backgroundBlur_395_2166"/>
<feBlend mode="normal" in="SourceGraphic" in2="effect1_backgroundBlur_395_2166" result="shape"/>
<feColorMatrix in="SourceAlpha" type="matrix" values="0 0 0 0 0 0 0 0 0 0 0 0 0 0 0 0 0 0 127 0" result="hardAlpha"/>
<feOffset dx="6" dy="6"/>
<feGaussianBlur stdDeviation="6.9"/>
<feComposite in2="hardAlpha" operator="arithmetic" k2="-1" k3="1"/>
<feColorMatrix type="matrix" values="0 0 0 0 0 0 0 0 0 0.796078 0 0 0 0 0.662745 0 0 0 0.18 0"/>
<feBlend mode="normal" in2="shape" result="effect2_innerShadow_395_2166"/>
<feColorMatrix in="SourceAlpha" type="matrix" values="0 0 0 0 0 0 0 0 0 0 0 0 0 0 0 0 0 0 127 0" result="hardAlpha"/>
<feOffset dy="1.2"/>
<feGaussianBlur stdDeviation="1.8"/>
<feComposite in2="hardAlpha" operator="arithmetic" k2="-1" k3="1"/>
<feColorMatrix type="matrix" values="0 0 0 0 1 0 0 0 0 1 0 0 0 0 1 0 0 0 0.05 0"/>
<feBlend mode="normal" in2="effect2_innerShadow_395_2166" result="effect3_innerShadow_395_2166"/>
<feColorMatrix in="SourceAlpha" type="matrix" values="0 0 0 0 0 0 0 0 0 0 0 0 0 0 0 0 0 0 127 0" result="hardAlpha"/>
<feOffset dy="0.6"/>
<feComposite in2="hardAlpha" operator="arithmetic" k2="-1" k3="1"/>
<feColorMatrix type="matrix" values="0 0 0 0 1 0 0 0 0 1 0 0 0 0 1 0 0 0 0.05 0"/>
<feBlend mode="normal" in2="effect3_innerShadow_395_2166" result="effect4_innerShadow_395_2166"/>
<feColorMatrix in="SourceAlpha" type="matrix" values="0 0 0 0 0 0 0 0 0 0 0 0 0 0 0 0 0 0 127 0" result="hardAlpha"/>
<feOffset dy="-6"/>
<feGaussianBlur stdDeviation="3"/>
<feComposite in2="hardAlpha" operator="arithmetic" k2="-1" k3="1"/>
<feColorMatrix type="matrix" values="0 0 0 0 0 0 0 0 0 0.796078 0 0 0 0 0.662745 0 0 0 0.4 0"/>
<feBlend mode="overlay" in2="effect4_innerShadow_395_2166" result="effect5_innerShadow_395_2166"/>
</filter>
<linearGradient id="paint0_linear_395_2166" x1="28.4398" y1="0" x2="28.4398" y2="91.7999" gradientUnits="userSpaceOnUse">
<stop stop-color="#00CBA9" stop-opacity="0.01"/>
<stop offset="1" stop-color="#00CBA9" stop-opacity="0.12"/>
</linearGradient>
</defs>
</svg>
