

<svg width="24" height="24" viewBox="0 0 24 24" fill="none" stroke='currentColor' xmlns="http://www.w3.org/2000/svg">
<path d="M15.1202 10.3601V6.04006C15.1202 5.08528 14.7409 4.16961 14.0658 3.49448C13.3906 2.81935 12.475 2.44006 11.5202 2.44006C10.5654 2.44006 9.64973 2.81935 8.9746 3.49448C8.29947 4.16961 7.92018 5.08528 7.92018 6.04006V10.3601M18.8219 8.44678L20.0344 19.9668C20.1016 20.6052 19.6024 21.1601 18.9602 21.1601H4.08018C3.9287 21.1602 3.77888 21.1285 3.64045 21.067C3.50202 21.0055 3.37808 20.9155 3.27668 20.803C3.17528 20.6905 3.09869 20.5579 3.05188 20.4138C3.00507 20.2697 2.98909 20.1174 3.00498 19.9668L4.21842 8.44678C4.24641 8.1814 4.37166 7.93578 4.57002 7.75727C4.76838 7.57876 5.02581 7.48001 5.29266 7.48006H17.7477C18.3007 7.48006 18.7643 7.89766 18.8219 8.44678ZM8.28018 10.3601C8.28018 10.4555 8.24225 10.5471 8.17474 10.6146C8.10723 10.6821 8.01566 10.7201 7.92018 10.7201C7.8247 10.7201 7.73314 10.6821 7.66562 10.6146C7.59811 10.5471 7.56018 10.4555 7.56018 10.3601C7.56018 10.2646 7.59811 10.173 7.66562 10.1055C7.73314 10.038 7.8247 10.0001 7.92018 10.0001C8.01566 10.0001 8.10723 10.038 8.17474 10.1055C8.24225 10.173 8.28018 10.2646 8.28018 10.3601ZM15.4802 10.3601C15.4802 10.4555 15.4423 10.5471 15.3747 10.6146C15.3072 10.6821 15.2157 10.7201 15.1202 10.7201C15.0247 10.7201 14.9331 10.6821 14.8656 10.6146C14.7981 10.5471 14.7602 10.4555 14.7602 10.3601C14.7602 10.2646 14.7981 10.173 14.8656 10.1055C14.9331 10.038 15.0247 10.0001 15.1202 10.0001C15.2157 10.0001 15.3072 10.038 15.3747 10.1055C15.4423 10.173 15.4802 10.2646 15.4802 10.3601Z"  stroke-width="1.44" stroke-linecap="round" stroke-linejoin="round"/>
</svg>
