<svg width="32" height="30" viewBox="0 0 32 30" fill="none" xmlns="http://www.w3.org/2000/svg">
<path d="M30.4062 0.10498L17.9199 9.41751L20.2289 3.92324L30.4062 0.10498Z" fill="#E2761B"/>
<path d="M1.58132 0.10498L13.9672 9.50572L11.7711 3.92324L1.58132 0.10498ZM25.9139 21.6914L22.5884 26.8076L29.7037 28.7735L31.7492 21.8048L25.9139 21.6914ZM0.263672 21.8048L2.29661 28.7735L9.41191 26.8076L6.08642 21.6914L0.263672 21.8048Z" fill="#E4761B"/>
<path d="M9.01106 13.0467L7.02832 16.0585L14.0934 16.3735L13.8424 8.74959L9.01106 13.0467ZM22.9781 13.0467L18.084 8.66138L17.9209 16.3735L24.9734 16.0585L22.9781 13.0467ZM9.41263 26.8076L13.6542 24.7283L9.98989 21.8552L9.41263 26.8076ZM18.335 24.7283L22.5891 26.8076L21.9993 21.8552L18.335 24.7283Z" fill="#E4761B"/>
<path d="M22.5886 26.8075L18.3345 24.7283L18.6733 27.5132L18.6356 28.6852L22.5886 26.8075ZM9.41211 26.8075L13.3651 28.6852L13.34 27.5132L13.6537 24.7283L9.41211 26.8075Z" fill="#D7C1B3"/>
<path d="M13.4275 20.0154L9.88867 18.9695L12.3859 17.8228L13.4275 20.0154ZM18.56 20.0154L19.6016 17.8228L22.1114 18.9695L18.56 20.0154Z" fill="#233447"/>
<path d="M9.41143 26.8077L10.0138 21.6915L6.08594 21.8049L9.41143 26.8077ZM21.9855 21.6915L22.5879 26.8077L25.9134 21.8049L21.9855 21.6915ZM24.9722 16.0586L17.9197 16.3736L18.5722 20.0155L19.6138 17.8228L22.1236 18.9695L24.9722 16.0586ZM9.88829 18.9695L12.3981 17.8228L13.4271 20.0155L14.0922 16.3736L7.02711 16.0586L9.88829 18.9695Z" fill="#CD6116"/>
<path d="M7.02832 16.0586L9.98989 21.8553L9.8895 18.9695L7.02832 16.0586ZM22.1248 18.9695L21.9993 21.8553L24.9734 16.0586L22.1248 18.9695ZM14.0934 16.3736L13.4283 20.0155L14.2566 24.3126L14.4448 18.6545L14.0934 16.3736ZM17.9209 16.3736L17.582 18.6419L17.7326 24.3126L18.5734 20.0155L17.9209 16.3736Z" fill="#E4751F"/>
<path d="M18.5726 20.0154L17.7318 24.3125L18.3342 24.7284L21.9985 21.8552L22.124 18.9695L18.5726 20.0154ZM9.88867 18.9695L9.98906 21.8552L13.6534 24.7284L14.2557 24.3125L13.4275 20.0154L9.88867 18.9695Z" fill="#F6851B"/>
<path d="M18.6356 28.6852L18.6733 27.5133L18.3596 27.2361H13.6286L13.34 27.5133L13.3651 28.6852L9.41211 26.8076L10.7925 27.9418L13.5909 29.895H18.3972L21.2082 27.9418L22.5886 26.8076L18.6356 28.6852Z" fill="#C0AD9E"/>
<path d="M18.3334 24.7283L17.731 24.3125H14.2549L13.6526 24.7283L13.3389 27.5133L13.6275 27.2361H18.3585L18.6722 27.5133L18.3334 24.7283Z" fill="#161616"/>
<path d="M30.9333 10.0224L32 4.88096L30.4063 0.10498L18.3341 9.10247L22.9773 13.0467L29.5404 14.9748L30.9961 13.2736L30.3686 12.8199L31.3725 11.9L30.5945 11.2951L31.5984 10.5264L30.9333 10.0224ZM0 4.88096L1.06667 10.0224L0.38902 10.5264L1.39294 11.2951L0.627451 11.9L1.63137 12.8199L1.00392 13.2736L2.44706 14.9748L9.0102 13.0467L13.6533 9.10247L1.58118 0.10498L0 4.88096Z" fill="#763D16"/>
<path d="M29.5405 14.9749L22.9774 13.0468L24.9727 16.0586L21.9986 21.8553L25.9139 21.8049H31.7492L29.5405 14.9749ZM9.01034 13.0468L2.4472 14.9749L0.263672 21.8049H6.08642L9.98916 21.8553L7.02759 16.0586L9.01034 13.0468ZM17.9201 16.3736L18.3343 9.10257L20.2417 3.92334H11.7711L13.6535 9.10257L14.0927 16.3736L14.2433 18.6671L14.2558 24.3126H17.7319L17.757 18.6671L17.9201 16.3736Z" fill="#F6851B"/>
</svg>
