<svg width="24" height="25" viewBox="0 0 24 25" fill="none" xmlns="http://www.w3.org/2000/svg">
<path d="M14.4001 19.3429C15.219 19.5806 16.0675 19.7009 16.9201 19.7C18.2914 19.702 19.6448 19.3893 20.8763 18.7861C20.9127 17.9256 20.6676 17.0768 20.1782 16.3681C19.6887 15.6595 18.9816 15.1298 18.164 14.8592C17.3464 14.5886 16.4629 14.5919 15.6473 14.8687C14.8318 15.1454 14.1287 15.6805 13.6446 16.3928M14.4001 19.3429V19.34C14.4001 18.2715 14.1256 17.2664 13.6446 16.3928M14.4001 19.3429V19.4446C12.5526 20.5574 10.4359 21.1436 8.27918 21.14C6.04142 21.14 3.94766 20.5208 2.16014 19.4446L2.15918 19.34C2.15844 17.9811 2.61001 16.6606 3.44268 15.5866C4.27536 14.5127 5.44178 13.7465 6.75805 13.4087C8.07432 13.071 9.46557 13.1809 10.7125 13.7212C11.9593 14.2615 12.9909 15.2014 13.6446 16.3928M11.5201 7.09999C11.5201 7.95929 11.1788 8.78339 10.5712 9.39101C9.96355 9.99863 9.13944 10.34 8.28014 10.34C7.42084 10.34 6.59673 9.99863 5.98911 9.39101C5.3815 8.78339 5.04014 7.95929 5.04014 7.09999C5.04014 6.24068 5.3815 5.41658 5.98911 4.80896C6.59673 4.20134 7.42084 3.85999 8.28014 3.85999C9.13944 3.85999 9.96355 4.20134 10.5712 4.80896C11.1788 5.41658 11.5201 6.24068 11.5201 7.09999ZM19.4401 9.25999C19.4401 9.92833 19.1746 10.5693 18.7021 11.0419C18.2295 11.5145 17.5885 11.78 16.9201 11.78C16.2518 11.78 15.6108 11.5145 15.1382 11.0419C14.6656 10.5693 14.4001 9.92833 14.4001 9.25999C14.4001 8.59164 14.6656 7.95067 15.1382 7.47808C15.6108 7.00548 16.2518 6.73999 16.9201 6.73999C17.5885 6.73999 18.2295 7.00548 18.7021 7.47808C19.1746 7.95067 19.4401 8.59164 19.4401 9.25999Z" stroke="#11A879" stroke-width="1.44" stroke-linecap="round" stroke-linejoin="round"/>
</svg>
