<svg width="24" height="24" viewBox="0 0 24 24" fill="none" xmlns="http://www.w3.org/2000/svg">
<path d="M10.0809 6.04004C8.65684 6.04004 7.26479 6.46231 6.08076 7.25346C4.89672 8.0446 3.97388 9.16909 3.42893 10.4847C2.88398 11.8003 2.7414 13.248 3.01921 14.6447C3.29702 16.0414 3.98276 17.3243 4.98969 18.3312C5.99663 19.3381 7.27955 20.0239 8.67621 20.3017C10.0729 20.5795 11.5206 20.4369 12.8362 19.892C14.1518 19.347 15.2763 18.4242 16.0674 17.2401C16.8586 16.0561 17.2809 14.6641 17.2809 13.24H10.0809V6.04004Z" stroke="#E4E4E4" stroke-width="1.44" stroke-linecap="round" stroke-linejoin="round"/>
<path d="M12.96 10.36H20.16C20.16 8.45048 19.4014 6.61913 18.0511 5.26887C16.7009 3.9186 14.8695 3.16003 12.96 3.16003V10.36Z" stroke="#E4E4E4" stroke-width="1.44" stroke-linecap="round" stroke-linejoin="round"/>
</svg>
