<svg width="48" height="48" viewBox="0 0 48 48" fill="none" xmlns="http://www.w3.org/2000/svg">
<g clip-path="url(#clip0_461_2484)">
<path d="M0.00195312 23.9995C0.00195312 37.2543 10.7471 47.9995 24.002 47.9995C37.2568 47.9995 48.002 37.2543 48.002 23.9995C48.002 10.7447 37.2568 -0.000488281 24.002 -0.000488281C10.7471 -0.000488281 0.00195312 10.7447 0.00195312 23.9995Z" fill="#AB9FF2"/>
<path fill-rule="evenodd" clip-rule="evenodd" d="M20.8678 30.8048C19.0801 33.5441 16.0845 37.0107 12.0985 37.0107C10.2142 37.0107 8.40234 36.235 8.40234 32.8654C8.40234 24.2838 20.1189 10.9995 30.9899 10.9995C37.1743 10.9995 39.6386 15.2903 39.6386 20.1628C39.6386 26.4171 35.5799 33.5684 31.5455 33.5684C30.2652 33.5684 29.6371 32.8653 29.6371 31.7502C29.6371 31.4594 29.6854 31.1442 29.782 30.8048C28.405 33.1563 25.7477 35.338 23.2594 35.338C21.4476 35.338 20.5296 34.1987 20.5296 32.5987C20.5296 32.0169 20.6504 31.4109 20.8678 30.8048ZM30.2322 19.9938C30.2322 21.4136 29.3945 22.1235 28.4574 22.1235C27.5061 22.1235 26.6827 21.4136 26.6827 19.9938C26.6827 18.5739 27.5061 17.864 28.4574 17.864C29.3945 17.864 30.2322 18.5739 30.2322 19.9938ZM35.556 19.9938C35.556 21.4137 34.7183 22.1236 33.7813 22.1236C32.83 22.1236 32.0065 21.4137 32.0065 19.9938C32.0065 18.5741 32.83 17.8641 33.7813 17.8641C34.7183 17.8641 35.556 18.5741 35.556 19.9938Z" fill="#FFFDF8"/>
</g>
<defs>
<clipPath id="clip0_461_2484">
<rect width="48" height="48" fill="white"/>
</clipPath>
</defs>
</svg>
