<svg width="30" height="26" viewBox="0 0 30 26" fill="none" xmlns="http://www.w3.org/2000/svg">
<path d="M22.3324 8.19817C21.801 7.885 21.1103 7.885 20.5258 8.19817L16.3811 10.5991L13.5649 12.165L9.42027 14.5659C8.8889 14.8791 8.19813 14.8791 7.61363 14.5659L4.31917 12.6869C3.7878 12.3737 3.41585 11.7996 3.41585 11.1733V7.46743C3.41585 6.8411 3.73467 6.26695 4.31917 5.95379L7.56049 4.12697C8.09185 3.8138 8.78263 3.8138 9.36713 4.12697L12.6085 5.95379C13.1398 6.26695 13.5118 6.8411 13.5118 7.46743V9.86841L16.328 8.25036V5.8494C16.328 5.22305 16.0092 4.64891 15.4247 4.33574L9.42027 0.890883C8.8889 0.577713 8.19813 0.577713 7.61363 0.890883L1.50293 4.33574C0.918428 4.64891 0.599609 5.22305 0.599609 5.8494V12.7913C0.599609 13.4176 0.918428 13.9918 1.50293 14.305L7.61363 17.7499C8.14498 18.063 8.83577 18.063 9.42027 17.7499L13.5649 15.4011L16.3811 13.783L20.5258 11.4343C21.0572 11.1211 21.7479 11.1211 22.3324 11.4343L25.5738 13.2611C26.1051 13.5742 26.4771 14.1484 26.4771 14.7747V18.4805C26.4771 19.1069 26.1583 19.681 25.5738 19.9942L22.3324 21.8732C21.801 22.1864 21.1103 22.1864 20.5258 21.8732L17.2845 20.0464C16.7531 19.7333 16.3811 19.1591 16.3811 18.5327V16.1318L13.5649 17.7499V20.1508C13.5649 20.7771 13.8838 21.3513 14.4682 21.6644L20.5789 25.1093C21.1103 25.4224 21.801 25.4224 22.3855 25.1093L28.4963 21.6644C29.0276 21.3513 29.3996 20.7771 29.3996 20.1508V13.2088C29.3996 12.5825 29.0807 12.0084 28.4963 11.6953L22.3324 8.19817Z" fill="#8247E5"/>
</svg>
