<svg width="19" height="20" viewBox="0 0 19 20" fill="none" xmlns="http://www.w3.org/2000/svg">
<path fill-rule="evenodd" clip-rule="evenodd" d="M10.96 0.809901L16.96 4.1399C17.9136 4.67112 18.5034 5.67835 18.5 6.7699V13.2299C18.5034 14.3214 17.9136 15.3287 16.96 15.8599L10.96 19.1899C10.0524 19.6956 8.94768 19.6956 8.04001 19.1899L2.04001 15.8599C1.08644 15.3287 0.496656 14.3214 0.500014 13.2299V6.7699C0.496656 5.67835 1.08644 4.67112 2.04001 4.1399L8.04001 0.809901C8.94768 0.304252 10.0524 0.304252 10.96 0.809901ZM16.19 14.5499C16.6638 14.2788 16.9572 13.7758 16.96 13.2299V6.7699C16.9572 6.22405 16.6638 5.72104 16.19 5.4499L10.19 2.1199C9.73618 1.86708 9.18384 1.86708 8.73001 2.1199L2.73001 5.4499C2.25626 5.72104 1.96283 6.22405 1.96001 6.7699V13.2299C1.96283 13.7758 2.25626 14.2788 2.73001 14.5499L8.73001 17.8799C9.18384 18.1327 9.73618 18.1327 10.19 17.8799L16.19 14.5499Z" fill="#E4E4E4"/>
<path d="M14.18 6.1999L9.95003 8.5499C9.67157 8.71067 9.32849 8.71067 9.05003 8.5499L4.82003 6.1999C4.58552 6.06266 4.29511 6.06299 4.06092 6.20077C3.82672 6.33855 3.68536 6.59223 3.6914 6.86388C3.69744 7.13553 3.84994 7.38267 4.09003 7.5099L8.32003 9.8599C8.46035 9.93437 8.60774 9.99467 8.76003 10.0399V14.4999C8.76003 14.9141 9.09582 15.2499 9.51003 15.2499C9.92424 15.2499 10.26 14.9141 10.26 14.4999V9.9999C10.4062 9.95983 10.5471 9.90278 10.68 9.8299L14.91 7.4799C15.2622 7.2738 15.385 6.82396 15.1864 6.46752C14.9877 6.11107 14.5406 5.97883 14.18 6.1699V6.1999Z" fill="#E4E4E4"/>
</svg>
