<svg width="24" height="24" viewBox="0 0 24 24" fill="none" xmlns="http://www.w3.org/2000/svg">
<path d="M9.21048 4.06243C9.29688 3.54211 9.74808 3.16003 10.2761 3.16003H12.7654C13.2934 3.16003 13.7446 3.54211 13.831 4.06243L14.0354 5.29219C14.0959 5.65123 14.3359 5.95075 14.6546 6.12739C14.7257 6.16579 14.7958 6.20707 14.8658 6.24931C15.1778 6.43747 15.557 6.49603 15.8978 6.36835L17.0662 5.93059C17.3056 5.84055 17.5692 5.83841 17.81 5.92456C18.0509 6.0107 18.2533 6.17954 18.3814 6.40099L19.6255 8.55811C19.7533 8.77959 19.7983 9.0392 19.7526 9.29075C19.7069 9.54231 19.5734 9.76949 19.3759 9.93187L18.413 10.7258C18.1318 10.9572 17.9926 11.3143 18.0002 11.6781C18.0016 11.7597 18.0016 11.8413 18.0002 11.9229C17.9926 12.2858 18.1318 12.6429 18.413 12.8743L19.3769 13.6682C19.7839 14.0042 19.8895 14.585 19.6265 15.041L18.3804 17.1981C18.2526 17.4195 18.0503 17.5884 17.8097 17.6747C17.569 17.761 17.3056 17.7592 17.0662 17.6695L15.8978 17.2317C15.557 17.104 15.1778 17.1626 14.8649 17.3508C14.7953 17.3931 14.7249 17.4341 14.6537 17.4736C14.3359 17.6493 14.0959 17.9488 14.0354 18.3079L13.831 19.5376C13.7446 20.0589 13.2934 20.44 12.7654 20.44H10.2751C9.74712 20.44 9.29688 20.058 9.20952 19.5376L9.00504 18.3079C8.94552 17.9488 8.70552 17.6493 8.3868 17.4727C8.31561 17.4334 8.2452 17.3928 8.1756 17.3508C7.8636 17.1626 7.4844 17.104 7.14264 17.2317L5.97432 17.6695C5.73502 17.7593 5.47163 17.7613 5.23099 17.6751C4.99035 17.589 4.78805 17.4203 4.66008 17.1991L3.41496 15.042C3.28722 14.8205 3.2422 14.5609 3.28791 14.3093C3.33361 14.0578 3.46708 13.8306 3.66456 13.6682L4.6284 12.8743C4.90872 12.6439 5.04792 12.2858 5.0412 11.9229C5.0397 11.8413 5.0397 11.7597 5.0412 11.6781C5.04792 11.3133 4.90872 10.9572 4.6284 10.7258L3.66456 9.93187C3.46731 9.76953 3.334 9.54253 3.28831 9.29119C3.24261 9.03985 3.28748 8.78045 3.41496 8.55907L4.66008 6.40195C4.78794 6.18033 4.99033 6.01129 5.23119 5.92496C5.47206 5.83864 5.73575 5.84064 5.97528 5.93059L7.14264 6.36835C7.4844 6.49603 7.8636 6.43747 8.1756 6.24931C8.24472 6.20707 8.31576 6.16675 8.3868 6.12643C8.70552 5.95075 8.94552 5.65123 9.00504 5.29219L9.21048 4.06243Z" stroke="#E4E4E4" stroke-width="1.44" stroke-linecap="round" stroke-linejoin="round"/>
<path d="M14.4006 11.8C14.4006 12.5639 14.0972 13.2964 13.5571 13.8365C13.017 14.3766 12.2844 14.68 11.5206 14.68C10.7568 14.68 10.0243 14.3766 9.48416 13.8365C8.94405 13.2964 8.64062 12.5639 8.64062 11.8C8.64062 11.0362 8.94405 10.3037 9.48416 9.76358C10.0243 9.22347 10.7568 8.92004 11.5206 8.92004C12.2844 8.92004 13.017 9.22347 13.5571 9.76358C14.0972 10.3037 14.4006 11.0362 14.4006 11.8Z" stroke="#E4E4E4" stroke-width="1.44" stroke-linecap="round" stroke-linejoin="round"/>
</svg>
