<svg width="21" height="21" viewBox="0 0 21 21" fill="none" xmlns="http://www.w3.org/2000/svg">
<path d="M19.2998 6V4.5C19.2998 2.84315 17.9567 1.5 16.2998 1.5H14.7998M19.2998 15V16.5C19.2998 18.1569 17.9567 19.5 16.2998 19.5H14.7998M5.7998 19.5H4.2998C2.64295 19.5 1.2998 18.1569 1.2998 16.5V15M1.2998 6V4.5C1.2998 2.84315 2.64295 1.5 4.2998 1.5H5.7998" stroke="#E4E4E4" stroke-width="1.5" stroke-linecap="round"/>
<path d="M15.415 12.1152C15.415 14.0482 13.848 15.6152 11.915 15.6152C9.98204 15.6152 8.41504 14.0482 8.41504 12.1152C8.41504 10.1822 9.98204 8.61523 11.915 8.61523C13.848 8.61523 15.415 10.1822 15.415 12.1152Z" fill="#E4E4E4" stroke="#E4E4E4" stroke-width="1.5"/>
<path fill-rule="evenodd" clip-rule="evenodd" d="M5.7998 8.70497C5.7998 7.21106 7.01086 6 8.50477 6C9.87836 6 11.0128 7.02383 11.1867 8.34999C11.4365 8.29957 11.695 8.2731 11.9597 8.2731C12.2109 8.2731 12.4565 8.29692 12.6943 8.34242C12.5105 6.18982 10.705 4.5 8.50477 4.5C6.18243 4.5 4.2998 6.38263 4.2998 8.70497C4.2998 10.9052 5.98962 12.7107 8.14223 12.8945C8.09673 12.6567 8.07291 12.4111 8.07291 12.1599C8.07291 11.8952 8.09937 11.6367 8.1498 11.3869C6.82363 11.213 5.7998 10.0786 5.7998 8.70497Z" fill="#E4E4E4"/>
</svg>
