<svg width="22" height="21" viewBox="0 0 22 21" fill="none" xmlns="http://www.w3.org/2000/svg">
<path d="M1.09961 9.33333C1.09961 6.432 2.73961 4.40533 5.28961 4.064C5.54961 4.02133 5.81961 4 6.09961 4H16.0996C16.3596 4 16.6096 4.01065 16.8496 4.05332C19.4296 4.37332 21.0996 6.41067 21.0996 9.33333V14.6667C21.0996 17.8667 19.0996 20 16.0996 20H11.0996H8.59961" stroke="#E4E4E4" stroke-width="1.5" stroke-linecap="round" stroke-linejoin="round"/>
<path d="M3.59961 19L3.59961 12.5M3.59961 19L6.09961 16.5M3.59961 19L1.09961 16.5" stroke="#E4E4E4" stroke-width="1.5" stroke-linecap="round" stroke-linejoin="round"/>
<path d="M2.45619 5.48012C2.25925 3.70265 3.45578 2.11146 5.12869 1.92612L14.9732 0.835412C16.6461 0.650065 18.1619 1.94074 18.3589 3.71821L18.448 4.52281" stroke="#E4E4E4" stroke-width="1.5"/>
<path d="M17.0996 10H20.2425C20.7159 10 21.0996 10.3838 21.0996 10.8571V13.1429C21.0996 13.6162 20.7159 14 20.2425 14H17.0996C15.995 14 15.0996 13.1046 15.0996 12C15.0996 10.8954 15.995 10 17.0996 10Z" stroke="#E4E4E4" stroke-width="1.5" stroke-linecap="round"/>
</svg>
