<svg width="24" height="24" viewBox="0 0 24 24" fill="none" xmlns="http://www.w3.org/2000/svg">
<path d="M18.7203 13.9601V11.4401C18.7203 10.5808 18.379 9.75666 17.7713 9.14904C17.1637 8.54142 16.3396 8.20006 15.4803 8.20006H14.0403C13.7539 8.20006 13.4792 8.08628 13.2766 7.88374C13.0741 7.6812 12.9603 7.4065 12.9603 7.12006V5.68006C12.9603 4.82076 12.619 3.99666 12.0113 3.38904C11.4037 2.78142 10.5796 2.44006 9.72031 2.44006H7.92031M7.92031 14.6801H15.1203M7.92031 17.5601H11.5203M10.0803 2.44006H5.40031C4.80415 2.44006 4.32031 2.9239 4.32031 3.52006V20.0801C4.32031 20.6762 4.80415 21.1601 5.40031 21.1601H17.6403C18.2365 21.1601 18.7203 20.6762 18.7203 20.0801V11.0801C18.7203 8.78859 17.81 6.59097 16.1897 4.97066C14.5694 3.35035 12.3718 2.44006 10.0803 2.44006Z" stroke="#E4E4E4" stroke-width="1.44" stroke-linecap="round" stroke-linejoin="round"/>
</svg>
