<svg width="17" height="21" viewBox="0 0 17 21" fill="none" xmlns="http://www.w3.org/2000/svg">
<path d="M2.97979 14.4404L6.38979 11.0304C6.68526 10.7377 6.6875 10.2609 6.39479 9.96543C6.10208 9.66996 5.62526 9.66772 5.32979 9.96043L0.699792 14.6504C0.631695 14.7233 0.577474 14.8081 0.539792 14.9004C0.469809 15.084 0.469809 15.2869 0.539792 15.4704C0.577474 15.5628 0.631695 15.6475 0.699792 15.7204L5.38979 20.4104C5.53264 20.5476 5.7218 20.6261 5.91979 20.6304C6.11864 20.6303 6.30927 20.5511 6.44979 20.4104C6.59274 20.2711 6.67336 20.08 6.67336 19.8804C6.67336 19.6808 6.59274 19.4897 6.44979 19.3504L3.00979 15.9404H12.0098C12.424 15.9404 12.7598 15.6046 12.7598 15.1904C12.7598 14.7762 12.424 14.4404 12.0098 14.4404H2.97979Z" fill="#E4E4E4"/>
<path d="M16.8898 5.50043C16.8401 5.41637 16.7757 5.34187 16.6998 5.28043L12.0398 0.590434C11.747 0.29798 11.2726 0.29798 10.9798 0.590434C10.8368 0.729722 10.7562 0.920846 10.7562 1.12043C10.7562 1.32002 10.8368 1.51115 10.9798 1.65043L14.3898 5.07043H5.38979C4.97558 5.07043 4.63979 5.40622 4.63979 5.82043C4.63979 6.23465 4.97558 6.57043 5.38979 6.57043H14.3898L10.9798 9.98043C10.8368 10.1197 10.7562 10.3108 10.7562 10.5104C10.7562 10.71 10.8368 10.9011 10.9798 11.0404C11.1203 11.1811 11.3109 11.2603 11.5098 11.2604C11.7078 11.2561 11.8969 11.1776 12.0398 11.0404L16.6998 6.35043C16.7679 6.27753 16.8221 6.19281 16.8598 6.10043C16.9474 5.91193 16.9581 5.69674 16.8898 5.50043Z" fill="#E4E4E4"/>
</svg>
