<svg width="21" height="22" viewBox="0 0 21 22" fill="none" xmlns="http://www.w3.org/2000/svg">
<path d="M15.2002 7.16H6.2002C5.78598 7.16 5.4502 7.49579 5.4502 7.91C5.4502 8.32421 5.78598 8.66 6.2002 8.66H15.2002C15.6144 8.66 15.9502 8.32421 15.9502 7.91C15.9502 7.49579 15.6144 7.16 15.2002 7.16Z" fill="#E4E4E4"/>
<path fill-rule="evenodd" clip-rule="evenodd" d="M15.5902 2.57H15.7002C18.4616 2.57 20.7002 4.80858 20.7002 7.57V16.57C20.7002 19.3314 18.4616 21.57 15.7002 21.57H5.7002C4.37411 21.57 3.10234 21.0432 2.16466 20.1055C1.22698 19.1679 0.700195 17.8961 0.700195 16.57V7.57C0.700195 4.80858 2.93877 2.57 5.7002 2.57H5.7902V0.75C5.7902 0.335786 6.12598 0 6.5402 0C6.95441 0 7.2902 0.335786 7.2902 0.75V2.57H14.0902V0.75C14.0902 0.335786 14.426 0 14.8402 0C15.2544 0 15.5902 0.335786 15.5902 0.75V2.57ZM15.7002 20.07C17.6332 20.07 19.2002 18.503 19.2002 16.57V7.57C19.2002 5.637 17.6332 4.07 15.7002 4.07H5.7002C3.7672 4.07 2.2002 5.637 2.2002 7.57V16.57C2.2002 18.503 3.7672 20.07 5.7002 20.07H15.7002Z" fill="#E4E4E4"/>
</svg>
